<svg width="20" height="20" viewBox="0 0 20 20" xmlns="http://www.w3.org/2000/svg" xmlns:xlink="http://www.w3.org/1999/xlink" version="1.1" baseProfile="full">
    <g transform="scale(0.040000,-0.040000) translate(0,-500)">
        <path d="M 5.956095 7.938409 C 6.695953 7.094778 8.354733 5.583205 9.263293 4.924706 C 10.171853 4.266206 12.124606 3.160239 13.156600 2.719681 C 14.188593 2.279123 16.338024 1.633866 17.442033 1.433199 C 18.546041 1.232532 20.785055 1.080136 21.906072 1.129358 C 23.027089 1.178581 25.244129 1.526638 26.326300 1.823297 L 171.550076 41.753763 L 190.745851 276.071877 L 209.820151 41.632259 L 355.043926 1.701794 C 356.051462 1.424608 358.113254 1.082766 359.156334 1.019963 C 360.199414 0.957159 362.287327 1.049150 363.320842 1.203445 C 364.354357 1.357740 366.378096 1.879585 367.357351 2.244306 C 368.336605 2.609027 370.208652 3.538158 371.091296 4.097532 C 371.973941 4.656905 373.613335 5.953141 374.361199 6.682977 L 375.292640 7.614418 C 376.027154 8.457770 377.299439 10.297417 377.829314 11.282296 C 378.359188 12.267175 379.193247 14.342592 379.492255 15.420251 C 379.791263 16.497909 380.145813 18.706371 380.199155 19.823469 C 380.252496 20.940567 380.109989 23.172764 379.915024 24.274010 C 379.720059 25.375256 379.087547 27.520702 378.653926 28.551588 L 209.212691 433.039920 C 208.755560 434.122673 207.594495 436.166498 206.898517 437.113565 C 206.202538 438.060633 204.598766 439.779121 203.701960 440.538767 C 202.805154 441.298413 200.846283 442.597688 199.797641 443.128415 C 198.748998 443.659141 196.542038 444.468227 195.398843 444.741042 C 194.255648 445.013856 191.921161 445.288554 190.745864 445.288554 C 189.570567 445.288554 187.236080 445.013856 186.092885 444.741042 C 184.949690 444.468227 182.742731 443.659141 181.694088 443.128415 C 180.645445 442.597688 178.686575 441.298413 177.789769 440.538767 C 176.892963 439.779121 175.289190 438.060633 174.593212 437.113565 C 173.897234 436.166498 172.736169 434.122673 172.279038 433.039920 L 2.554303 28.916085 C 2.119838 27.882575 1.486821 25.731552 1.292217 24.627454 C 1.097614 23.523357 0.957069 21.285533 1.012005 20.165763 C 1.066941 19.045993 1.425858 16.832672 1.727601 15.752925 C 2.029345 14.673178 2.869873 12.594447 3.403415 11.608428 C 3.936958 10.622408 5.217290 8.781659 5.956095 7.938409 Z" transform="scale(1.000000,1.000000) translate(59.254145,27.681646)" fill="#4a45ff" opacity="1.000000"></path>
    </g>
</svg>